<?xml version="1.0" standalone="no"?>
<!DOCTYPE svg PUBLIC "-//W3C//DTD SVG 20010904//EN"
 "http://www.w3.org/TR/2001/REC-SVG-20010904/DTD/svg10.dtd">
<svg version="1.0" xmlns="http://www.w3.org/2000/svg"
 width="260.000000pt" height="260.000000pt" viewBox="0 0 260.000000 260.000000"
 preserveAspectRatio="xMidYMid meet">
<metadata>
Created by potrace 1.14, written by Peter Selinger 2001-2017
</metadata>
<g transform="translate(0.000000,260.000000) scale(0.100000,-0.100000)"
fill="#000000" stroke="none">
<path d="M115 2307 c-3 -6 -4 -192 -3 -412 3 -392 3 -400 23 -400 17 0 20 8
23 52 l3 52 37 -41 c49 -54 102 -78 176 -78 149 0 260 129 258 298 -1 119 -56
218 -146 264 -64 34 -167 31 -228 -4 -25 -16 -58 -43 -72 -60 l-26 -33 0 181
c0 157 -2 183 -16 188 -22 8 -24 8 -29 -7z m352 -311 c72 -37 111 -108 116
-209 8 -149 -83 -260 -213 -260 -110 0 -186 70 -208 191 -22 120 22 232 109
278 67 35 129 35 196 0z"/>
<path d="M787 2303 c-8 -28 -3 -800 5 -808 4 -4 14 -5 23 -2 13 6 15 53 13
414 -3 371 -4 408 -20 411 -9 2 -18 -5 -21 -15z"/>
<path d="M1155 2053 c-61 -24 -117 -75 -150 -134 -27 -48 -30 -63 -30 -144 0
-103 20 -156 81 -218 58 -57 97 -72 194 -72 74 0 91 3 130 27 55 32 81 60 110
114 27 54 33 84 32 162 -2 108 -61 205 -156 254 -53 28 -155 33 -211 11z m211
-64 c97 -59 137 -208 89 -327 -23 -56 -94 -118 -149 -130 -36 -7 -58 -8 -122
-3 -28 2 -107 68 -131 108 -31 54 -42 151 -23 218 14 50 68 118 111 140 70 37
160 34 225 -6z"/>
<path d="M1815 2055 c-69 -24 -136 -90 -166 -165 -8 -21 -14 -70 -14 -120 0
-97 23 -157 82 -216 49 -50 90 -67 170 -72 64 -4 79 -1 128 23 31 15 65 40 77
56 12 16 25 29 29 29 12 0 1 -114 -15 -151 -29 -70 -91 -116 -168 -125 -66 -8
-158 10 -192 37 -41 32 -66 0 -28 -34 49 -45 185 -63 275 -38 64 18 129 77
157 143 23 51 23 63 24 335 1 155 -3 285 -7 289 -18 18 -42 -13 -41 -54 l1
-41 -49 44 c-76 69 -173 90 -263 60z m200 -63 c75 -38 110 -109 110 -223 0
-78 -3 -90 -30 -135 -44 -70 -107 -106 -188 -107 -52 -1 -71 4 -110 26 -59 35
-98 92 -112 165 -43 213 146 369 330 274z"/>
<path d="M2078 1088 c0 -7 -2 -38 -3 -68 -2 -30 -3 -62 -4 -72 -1 -13 -10 -16
-50 -13 -37 2 -51 -1 -55 -12 -10 -25 3 -33 55 -33 27 0 49 -3 50 -7 0 -5 1
-107 2 -228 3 -228 7 -254 47 -275 37 -20 110 -10 110 15 0 16 -22 25 -47 19
-10 -3 -27 2 -38 10 -19 13 -20 28 -23 240 l-3 226 70 0 c71 0 98 13 69 34 -9
6 -42 11 -74 11 l-59 0 -5 80 c-4 66 -8 80 -22 83 -10 2 -19 -2 -20 -10z"/>
<path d="M954 934 c-23 -8 -59 -30 -82 -49 -22 -19 -42 -35 -44 -35 -1 0 -3
17 -3 37 0 31 -4 38 -20 38 -19 0 -20 -8 -23 -273 -2 -239 0 -273 13 -278 9
-4 19 -3 23 1 4 3 7 84 8 179 1 95 4 190 8 210 14 75 111 139 204 135 66 -3
93 -17 124 -68 22 -34 23 -50 28 -246 5 -202 6 -210 25 -210 19 0 20 7 21 200
0 110 -4 217 -9 239 -27 106 -154 162 -273 120z"/>
<path d="M1552 934 c-55 -20 -118 -81 -144 -141 -31 -71 -35 -184 -9 -255 30
-77 95 -142 163 -163 69 -20 154 -19 203 4 49 22 115 82 115 104 0 31 -21 28
-56 -8 -64 -66 -152 -86 -243 -55 -60 20 -95 50 -123 104 -20 39 -40 135 -29
137 3 1 105 2 225 3 184 1 221 4 229 17 16 25 -11 125 -46 171 -62 81 -189
117 -285 82z m202 -71 c40 -28 86 -100 86 -135 0 -17 -15 -18 -204 -18 -231 0
-219 -5 -177 78 21 41 66 82 111 101 45 19 138 6 184 -26z"/>
<path d="M571 452 c-5 -10 -8 -27 -6 -38 2 -10 4 -25 4 -32 1 -9 11 -12 29
-10 24 3 27 8 30 42 4 52 -35 79 -57 38z"/>
</g>
</svg>
